# xmcd
#
# Track frame offsets:
#	150
#	13251
#	28697
#	51260
#	66293
#	87533
#	105487
#	125589
#	141183
#	154524
#	172065
#	192267
#
# Disc length: 2832 seconds
#
# Revision: 0
# Processed by: cddbd v1.5.2PL0 Copyright (c) Steve Scherf et al.
# Submitted via: dBpowerAMP V4.0
#
DISCID=a90b0e0c
DTITLE=Sascha Klaar - 88 Tasten Leidenschaft
DYEAR=2012
DGENRE=Blues
TTITLE0=Es Ist So Ein Schöner Tag
TTITLE1=Du Und Rock'n Roll
TTITLE2=Ich Schick Dir Einen Engel
TTITLE3=Ich Will Dich Küssen
TTITLE4=Schön, Dass Es Dich Gibt
TTITLE5=Einmal Im Leben
TTITLE6=Reicht Euch Die Hand
TTITLE7=Atemlos
TTITLE8=Nur Mit Dir
TTITLE9=Halt Mich Ganz Fest
TTITLE10=Schön, Dass Es Dich Gibt
TTITLE11=Change Now
EXTD=
EXTT0=
EXTT1=
EXTT2=
EXTT3=
EXTT4=
EXTT5=
EXTT6=
EXTT7=
EXTT8=
EXTT9=
EXTT10=
EXTT11=
PLAYORDER=
